<?xml version="1.0" encoding="utf-8"?>
<!-- Generator: Adobe Illustrator 27.0.0, SVG Export Plug-In . SVG Version: 6.00 Build 0)  -->
<svg version="1.1" id="Layer_1" xmlns="http://www.w3.org/2000/svg" xmlns:xlink="http://www.w3.org/1999/xlink" x="0px" y="0px"
	 viewBox="0 0 59 61" style="enable-background:new 0 0 59 61;" xml:space="preserve">
<style type="text/css">
	.st0{fill:#452AEC;}
	.st1{fill:#FFFFFF;stroke:#FFFFFF;stroke-width:2;stroke-miterlimit:10;}
</style>
<circle class="st0" cx="29.5" cy="30.5" r="28.3"/>
<path class="st1" d="M50.6,40.4c-0.5,1-1.1,2-1.7,2.9l-1.5,1.8c-4.1,4.8-10.3,7.8-17.1,7.8c-12.5,0-22.6-10.1-22.6-22.4
	c0-4.6,1.4-9.1,4.1-12.8c0.5-0.6,0.9-1.3,1.5-1.8c4.1-4.7,10.3-7.7,17.1-7.7c9.3,0,17.4,5.7,20.8,13.7L48.6,23
	c-3-7.1-10-12.1-18.2-12.1c-5.5,0-10.8,2.3-14.5,6.3l24,13.8V20.3h2.4v14.7l-2.4-1.3L14.4,19.1c-2.4,3.3-3.7,7.3-3.7,11.4
	c0,10.8,8.8,19.6,19.7,19.6c5.7,0,10.9-2.5,14.5-6.4L20.8,29.9v10.7h-2.4V25.8l2.4,1.3l25.7,14.7c0.6-0.9,1.2-1.8,1.6-2.7L50.6,40.4
	L50.6,40.4z"/>
</svg>
